# xmcd
#
# Track frame offsets:
#	150
#	19596
#	46802
#	71632
#	94118
#	117610
#	131329
#	156656
#	179912
#
# Disc length: 2691 seconds
#
# Revision: 1
# Processed by: cddbd v1.5.2PL0 Copyright (c) Steve Scherf et al.
# Submitted via: audiograbber 1.83.01
#
DISCID=800a8109
DTITLE=Digla - Free Your Mind
DYEAR=1900
DGENRE=
TTITLE0=Cigarettes
TTITLE1=Highlights
TTITLE2=All do Lose
TTITLE3=Scattered Rain
TTITLE4=Free Your Mind
TTITLE5=Woman in Black
TTITLE6=Life's Ok
TTITLE7=Lost in a Desert
TTITLE8=Space Parade
EXTD=
EXTT0=
EXTT1=
EXTT2=
EXTT3=
EXTT4=
EXTT5=
EXTT6=
EXTT7=
EXTT8=
PLAYORDER=
